<svg xmlns="http://www.w3.org/2000/svg" fill="none" viewBox="0 0 150 26"><path fill="currentColor" d="M17.04.446v5.58H6.367v4.055h8.85v5.579h-8.85v9.53H0V.446zM28.888 25.642c-6.946 0-10.997-4.357-10.997-12.746C17.89 3.349 23.99 0 29.386 0c5.724 0 10.708 3.424 10.708 12.873 0 8.447-4.463 12.769-11.206 12.769m.272-5.26c3.42 0 4.422-3.61 4.422-7.364 0-3.129-.816-7.67-4.572-7.67-3.346 0-4.532 3.609-4.532 7.293 0 3.436.74 7.74 4.682 7.74M67.379 17.826c1.736 1.078 4.948 2.265 7.067 2.265 1.372 0 2.564-.446 2.564-2.155 0-1.523-1.598-2.045-3.756-2.682-3.16-.967-7.102-2.491-7.102-7.48 0-4.987 3.866-7.774 9-7.774 3.38.04 6.619 1.355 9.07 3.685l-3.31 4.206c-1.969-1.455-4.053-2.532-5.76-2.532-1.192 0-2.344.58-2.344 1.935 0 1.564 1.736 2.12 4.017 2.862 3.38 1.083 7.026 2.572 7.026 7.531 0 5.174-3.941 7.931-9.446 7.931a18.7 18.7 0 0 1-9.18-2.572zM87.232 17.826c1.736 1.078 4.948 2.265 7.067 2.265 1.372 0 2.564-.446 2.564-2.155 0-1.523-1.597-2.045-3.756-2.682-3.16-.967-7.102-2.491-7.102-7.48 0-4.987 3.866-7.774 9-7.774 3.38.04 6.619 1.355 9.07 3.685l-3.311 4.206c-1.968-1.455-4.051-2.532-5.788-2.532-1.192 0-2.315.58-2.315 1.935 0 1.564 1.736 2.12 4.017 2.862 3.386 1.083 7.026 2.572 7.026 7.531 0 5.174-3.941 7.931-9.446 7.931a18.7 18.7 0 0 1-9.18-2.572zM107.085 25.19V.446h6.395V25.19zM117.793.446h13.057V5.58h-6.662v5.098h6.622v5.139h-6.622v3.795h10.043v5.579h-16.438zM145.569 15.573a3.75 3.75 0 0 0-1.632-1.935 6.99 6.99 0 0 0 3.826-6.286c0-5.29-3.826-7.04-9.55-7.04h-3.774v5.006h3.264c2.316 0 3.537.522 3.537 2.567s-1.158 3.018-3.05 3.018h-3.734v4.913h3.062a2.02 2.02 0 0 1 1.974 1.414l3.421 7.832h6.841zM56.399.446v16.372c0 1.883-.892 2.995-2.24 3.366v5.411c5.169-.4 8.636-3.36 8.636-8.024V.446zM51.832 20.178c-1.354-.336-2.24-1.338-2.24-3.545V.446h-6.367v16.557c-.029 5.695 2.906 8.314 8.607 8.592z"/></svg>